<?xml version="1.0" encoding="utf-8"?>
<!-- Generator: Adobe Illustrator 27.5.0, SVG Export Plug-In . SVG Version: 6.00 Build 0)  -->
<svg version="1.1" xmlns="http://www.w3.org/2000/svg" xmlns:xlink="http://www.w3.org/1999/xlink" x="0px" y="0px"
	 viewBox="0 0 3710 3710" style="enable-background:new 0 0 3710 3710;" xml:space="preserve">
<g id="Background">
	<g>
		<g>
			<rect style="fill:#FFFFFF;" width="3710" height="3710"/>
		</g>
	</g>
</g>
<g id="Illustration">
	<g>
		<linearGradient id="SVGID_1_" gradientUnits="userSpaceOnUse" x1="3432.373" y1="3238.1274" x2="1390.2206" y2="1451.2454">
			<stop  offset="0" style="stop-color:#DAE3FE"/>
			<stop  offset="1" style="stop-color:#E9EFFD"/>
		</linearGradient>
		<path style="fill:url(#SVGID_1_);" d="M3085.313,2310.12c-263.928,621.445-966.972,969.583-1576.654,875.674
			c-99.207-15.281-371.187-60.8-611.988-275.544C433.115,2496.85,333.979,1678.267,707.917,1101.392
			c272.161-419.864,760.037-657.871,1223.615-645.965c99.855,2.564,482.54,18.369,818.854,295.686
			c49.398,40.733,158.35,137.524,256.542,291.077C3237.5,1402.761,3257.319,1905.116,3085.313,2310.12z"/>
		<g>
			<g style="opacity:0.3;">
				<path style="fill:#91B3FA;" d="M1176.624,1375.943c1.655,5.805-1.31,12.042-7.034,14.341
					c-12.516,5.031-25.439,9.592-38.404,13.558c-6.309,1.929-12.986-1.619-14.915-7.926c-0.022-0.076-0.043-0.15-0.064-0.224
					c-1.779-6.24,1.759-12.784,7.992-14.69c12.319-3.767,24.593-8.101,36.483-12.878c6.119-2.46,13.077,0.506,15.535,6.628
					C1176.377,1375.145,1176.51,1375.543,1176.624,1375.943z M1076.364,1403.729c0.128,0.449,0.231,0.912,0.308,1.385
					c1.051,6.511-3.376,12.643-9.886,13.694c-13.375,2.157-26.974,3.764-40.418,4.774c-6.578,0.495-12.289-4.413-12.808-11.013
					c-0.493-6.578,4.441-12.309,11.013-12.803c12.78-0.962,25.698-2.489,38.409-4.541
					C1069.02,1394.251,1074.728,1397.989,1076.364,1403.729z M972.48,1408.748c0.365,1.278,0.52,2.641,0.43,4.044
					c-0.428,6.581-6.106,11.574-12.688,11.149c-13.491-0.869-27.113-2.337-40.487-4.365c-6.521-0.993-10.998-7.082-10.018-13.597
					c0.989-6.52,7.078-11.006,13.597-10.018c12.7,1.926,25.633,3.32,38.446,4.146C966.938,1400.44,971.134,1404.028,972.48,1408.748
					z M870.06,1390.407c0.602,2.113,0.628,4.417-0.046,6.678c-1.885,6.32-8.539,9.914-14.858,8.03
					c-12.964-3.871-25.916-8.347-38.496-13.305c-6.128-2.422-9.143-9.353-6.731-15.491c2.418-6.135,9.354-9.148,15.491-6.73
					c11.947,4.709,24.248,8.963,36.569,12.636C866.045,1383.439,868.979,1386.614,870.06,1390.407z M774.304,1349.689
					c0.845,2.963,0.549,6.249-1.085,9.143c-3.241,5.746-10.526,7.774-16.268,4.532c-11.752-6.632-23.389-13.862-34.577-21.49
					c-5.453-3.71-6.863-11.14-3.145-16.593c3.715-5.449,11.143-6.856,16.596-3.143c10.634,7.252,21.694,14.123,32.862,20.426
					C771.537,1344.172,773.472,1346.773,774.304,1349.689z M689.945,1288.807c1.094,3.838,0.243,8.136-2.635,11.309
					c-4.433,4.885-11.983,5.253-16.87,0.823c-10.011-9.081-19.76-18.707-28.967-28.61c-4.492-4.833-4.216-12.387,0.616-16.879
					c4.826-4.49,12.385-4.215,16.876,0.614c8.751,9.409,18.009,18.554,27.522,27.183
					C688.201,1284.8,689.355,1286.736,689.945,1288.807z M542.612,875.766c0.453,1.59,0.581,3.297,0.321,5.038
					c-1.902,12.689-3.276,25.632-4.079,38.468c-0.413,6.582-6.083,11.584-12.662,11.17c-6.583-0.41-11.586-6.08-11.173-12.664
					c0.846-13.518,2.29-27.151,4.292-40.513c0.978-6.524,7.06-11.018,13.581-10.04C537.674,867.941,541.368,871.401,542.612,875.766
					z M621.222,1210.793c1.358,4.764-0.36,10.069-4.648,13.064c-5.408,3.778-12.853,2.457-16.63-2.949
					c-7.743-11.081-15.097-22.635-21.86-34.339c-3.272-5.725-1.349-13.016,4.365-16.316c5.71-3.299,13.015-1.344,16.317,4.368
					c6.42,11.117,13.404,22.087,20.756,32.61C620.301,1208.349,620.868,1209.553,621.222,1210.793z M538.892,979.732
					c0.216,0.758,0.364,1.548,0.427,2.365c0.987,12.801,2.543,25.728,4.616,38.424c1.061,6.511-3.354,12.649-9.862,13.712
					c-6.508,1.06-12.677-3.342-13.711-9.862c-2.179-13.358-3.816-26.962-4.858-40.431c-0.507-6.577,4.413-12.321,10.988-12.827
					C532.247,970.666,537.367,974.384,538.892,979.732z M571.647,1119.385c1.653,5.796-1.301,12.025-7.012,14.333
					c-6.116,2.472-13.075-0.483-15.551-6.597c-5.059-12.52-9.646-25.428-13.626-38.365c-0.028-0.079-0.051-0.162-0.074-0.243
					c-1.777-6.231,1.749-12.766,7.97-14.683c6.306-1.941,12.989,1.594,14.928,7.899c3.785,12.288,8.143,24.547,12.952,36.443
					C571.391,1118.573,571.531,1118.979,571.647,1119.385z"/>
				<path style="fill:#91B3FA;" d="M562.493,794.299c0.645,2.261,0.633,4.736-0.188,7.131c-1.997,5.825-3.9,11.789-5.671,17.727
					c-1.88,6.32-8.532,9.922-14.851,8.04c-6.323-1.879-9.932-8.531-8.038-14.854c1.857-6.246,3.862-12.517,5.961-18.648
					c2.136-6.238,8.929-9.568,15.165-7.431C558.72,787.58,561.457,790.665,562.493,794.299z"/>
			</g>
			<g style="opacity:0.3;">
				<path style="fill:#91B3FA;" d="M805.586,523.248c1.58,5.543-1.048,11.568-6.438,14.084c-5.579,2.602-11.198,5.366-16.697,8.215
					c-5.858,3.033-13.065,0.744-16.097-5.112c-3.045-5.882-0.742-13.065,5.112-16.098c5.791-2.997,11.708-5.909,17.582-8.651
					c5.977-2.788,13.083-0.204,15.873,5.772C805.195,522.045,805.414,522.644,805.586,523.248z"/>
				<path style="fill:#91B3FA;" d="M1449.761,816.597c1.507,5.284,2.929,10.615,4.268,15.989c1.592,6.4-2.303,12.881-8.703,14.475
					c-6.4,1.594-12.912-2.326-14.477-8.701c-3.09-12.403-6.675-24.652-10.706-36.544c-2.108-6.256,1.229-13.026,7.474-15.144
					c6.25-2.119,13.031,1.23,15.147,7.477C1445.259,801.505,1447.611,809.058,1449.761,816.597z M1465.05,894.665
					c0.183,0.641,0.315,1.31,0.389,1.997c1.444,13.246,2.34,26.701,2.666,39.989c0.162,6.592-5.052,12.069-11.642,12.231
					c-6.595,0.161-12.09-5.061-12.232-11.647c-0.31-12.621-1.165-25.402-2.532-37.99c-0.715-6.556,4.023-12.449,10.576-13.163
					C1458.146,885.443,1463.483,889.172,1465.05,894.665z M1418.511,736.172c1.544,5.415-0.926,11.331-6.144,13.942
					c-5.902,2.951-13.074,0.56-16.026-5.338c-5.642-11.284-11.847-22.479-18.448-33.277c-3.43-5.634-1.663-12.979,3.963-16.418
					c5.631-3.439,12.981-1.664,16.42,3.965c6.948,11.371,13.482,23.163,19.427,35.045
					C1418.043,734.77,1418.31,735.468,1418.511,736.172z M1464.856,997.07c0.416,1.458,0.555,3.019,0.375,4.617
					c-1.501,13.227-3.587,26.55-6.197,39.596c-1.295,6.466-7.584,10.658-14.051,9.364c-6.471-1.294-10.665-7.58-9.367-14.052
					c2.478-12.387,4.459-25.038,5.884-37.601c0.741-6.553,6.66-11.263,13.212-10.519
					C1459.665,989.037,1463.569,992.555,1464.856,997.07z M1362.884,650.297c1.266,4.441-0.12,9.411-3.924,12.523
					c-5.105,4.177-12.63,3.424-16.807-1.681c-7.983-9.761-16.5-19.317-25.309-28.406c-4.591-4.735-4.476-12.296,0.264-16.888
					c4.736-4.588,12.293-4.471,16.883,0.265c9.276,9.567,18.242,19.628,26.65,29.906
					C1361.704,647.316,1362.45,648.776,1362.884,650.297z M1289.758,578.705c1.012,3.551,0.369,7.52-2.081,10.649
					c-4.069,5.191-11.576,6.102-16.767,2.033c-9.957-7.801-20.358-15.275-30.912-22.212c-5.518-3.615-7.051-11.017-3.425-16.537
					c3.623-5.513,11.026-7.044,16.54-3.423c11.108,7.301,22.053,15.164,32.529,23.376
					C1287.704,574.205,1289.09,576.364,1289.758,578.705z M1202.764,524.759c0.77,2.701,0.596,5.68-0.71,8.415
					c-2.839,5.951-9.968,8.474-15.92,5.633c-11.426-5.454-23.203-10.485-35.012-14.953c-6.166-2.333-9.279-9.22-6.941-15.396
					c2.336-6.167,9.225-9.276,15.397-6.942c12.425,4.703,24.824,9.997,36.846,15.735
					C1199.64,518.788,1201.857,521.578,1202.764,524.759z M1106.083,491.071c0.533,1.871,0.616,3.897,0.152,5.928
					c-1.47,6.429-7.873,10.447-14.302,8.977c-12.335-2.823-24.927-5.148-37.431-6.914c-6.53-0.923-11.078-6.972-10.158-13.492
					c0.922-6.532,6.965-11.079,13.495-10.156c13.171,1.859,26.433,4.309,39.417,7.279
					C1101.658,483.702,1104.927,487.018,1106.083,491.071z M1004.325,479.426c0.3,1.052,0.457,2.164,0.454,3.312
					c-0.016,6.594-5.378,11.928-11.971,11.909c-12.621-0.032-25.41,0.473-38.018,1.507c-6.575,0.538-12.337-4.375-12.876-10.927
					c-0.54-6.574,4.355-12.34,10.929-12.878c13.272-1.087,26.736-1.62,40.023-1.584
					C998.313,470.779,1002.903,474.437,1004.325,479.426z M902.563,490.412c0.067,0.236,0.126,0.476,0.18,0.717
					c1.419,6.44-2.653,12.813-9.093,14.23c-9.092,2.003-18.228,4.31-27.165,6.858c-3.234,0.922-6.453,1.881-9.65,2.868
					c-6.304,1.945-12.991-1.586-14.934-7.888c-2.094-6.342,1.585-12.987,7.884-14.933c3.366-1.04,6.747-2.045,10.151-3.016
					c9.398-2.68,19.014-5.107,28.576-7.212C894.712,480.669,900.846,484.39,902.563,490.412z"/>
				<path style="fill:#91B3FA;" d="M1442.017,1097.185c0.651,2.284,0.631,4.78-0.206,7.19c-2.125,6.106-4.419,12.283-6.819,18.359
					c-2.422,6.136-9.36,9.145-15.493,6.722c-6.134-2.425-9.148-9.354-6.722-15.493c2.279-5.772,4.457-11.64,6.476-17.437
					c2.164-6.227,8.971-9.521,15.201-7.354C1438.273,1090.501,1440.987,1093.574,1442.017,1097.185z"/>
			</g>
			<g>
				<path style="fill:#91B3FA;" d="M1304.39,1119.668c1.361-1.953,1.334-4.556-0.07-6.48l-40.03-54.886
					c11.724-29.479,18.832-61.04,20.571-93.642l59.287-33.074c2.08-1.16,3.194-3.512,2.776-5.856l-14.331-80.215
					c-0.42-2.345-2.28-4.164-4.631-4.533l-67.073-10.498c-12.922-29.983-30.518-57.13-51.725-80.725l18.548-65.352
					c0.65-2.29-0.225-4.741-2.178-6.103l-66.854-46.587c-1.955-1.362-4.557-1.334-6.48,0.07l-54.886,40.03
					c-29.479-11.724-61.041-18.831-93.642-20.57l-33.075-59.289c-1.16-2.079-3.511-3.194-5.855-2.775l-80.216,14.332
					c-2.344,0.418-4.164,2.279-4.532,4.631l-10.498,67.073c-29.983,12.921-57.13,30.516-80.725,51.724l-65.354-18.548
					c-2.289-0.649-4.741,0.225-6.102,2.178l-46.586,66.855c-1.363,1.954-1.334,4.556,0.069,6.48l40.031,54.886
					c-11.725,29.479-18.832,61.04-20.571,93.642l-59.289,33.075c-2.079,1.16-3.194,3.511-2.776,5.855l14.333,80.216
					c0.418,2.344,2.278,4.164,4.631,4.532l67.073,10.498c12.92,29.984,30.517,57.13,51.725,80.725l-18.548,65.352
					c-0.651,2.291,0.225,4.743,2.178,6.104l66.855,46.586c1.953,1.361,4.556,1.333,6.48-0.069l54.886-40.03
					c29.479,11.725,61.041,18.831,93.642,20.57l33.075,59.289c1.159,2.079,3.511,3.194,5.856,2.774l80.214-14.331
					c2.344-0.419,4.165-2.278,4.534-4.631l10.498-67.073c29.982-12.921,57.129-30.517,80.725-51.724l65.352,18.547
					c2.291,0.651,4.741-0.224,6.104-2.178L1304.39,1119.668z"/>
				<g>
					<path style="fill:#BDD0FB;" d="M1066.348,926.14c10.948,38.396-7.635,80.151-45.084,97.059
						c-41.167,18.584-89.771,0.214-108.356-40.948c-9.009-19.941-9.703-42.195-1.969-62.656
						c7.732-20.466,22.974-36.696,42.915-45.697c41.167-18.585,89.771-0.214,108.356,40.948
						C1063.885,918.557,1065.263,922.334,1066.348,926.14z M927.12,965.643c0.846,2.965,1.911,5.885,3.202,8.747
						c14.247,31.56,51.52,45.642,83.077,31.396c31.561-14.25,45.661-51.515,31.398-83.079
						c-14.247-31.56-51.519-45.643-83.077-31.396c-15.291,6.904-26.975,19.345-32.906,35.038
						C923.996,939.102,923.448,952.766,927.12,965.643z"/>
				</g>
				<g>
					<path style="fill:#BDD0FB;" d="M1179.656,892.092c1.88,6.594,3.44,13.322,4.663,20.164l0,0
						c0.386,2.153,0.735,4.314,1.052,6.479c1.555,10.677,2.258,21.461,2.099,32.185c-0.002,0.146-0.004,0.292-0.006,0.438
						c-0.008,0.415-0.016,0.829-0.028,1.245c-0.017,0.808-0.044,1.615-0.071,2.421c-0.074,2.121-1.521,3.87-3.458,4.425
						c-0.471,0.134-0.972,0.197-1.487,0.179c-2.636-0.093-4.69-2.311-4.601-4.943c0.483-13.567-0.495-27.276-2.906-40.747
						c-11.946-66.924-57.457-119.566-116.09-143.714c-32.611-13.435-69.284-18.051-106.504-11.399
						c-6.527,1.165-12.948,2.651-19.237,4.447c-42.329,12.074-78.914,38.122-104.417,74.724
						c-29.298,42.042-40.47,92.979-31.457,143.421c18.624,104.177,118.465,173.718,222.594,155.113
						c6.421-1.147,12.759-2.615,18.99-4.394c27.001-7.703,52.016-21.229,73.203-39.695c0.548-0.477,1.172-0.807,1.827-0.992
						c1.723-0.491,3.656,0.013,4.911,1.455c1.728,1.995,1.534,5.005-0.464,6.741c-22.243,19.386-48.506,33.59-76.853,41.677
						c-6.54,1.867-13.193,3.407-19.931,4.613c-109.327,19.534-214.156-53.549-233.684-162.836
						c-9.463-52.958,2.267-106.428,33.024-150.565c26.773-38.426,65.181-65.771,109.618-78.448
						c6.604-1.883,13.343-3.443,20.192-4.668c52.961-9.461,106.432,2.266,150.569,33.021
						C1139.637,809.222,1166.983,847.643,1179.656,892.092z"/>
				</g>
			</g>
		</g>
		<g>
			<g style="opacity:0.3;">
				<path style="fill:#91B3FA;" d="M705.001,2035.778c-3.021,2.026-7.126,1.922-10.064-0.527
					c-5.486-4.568-10.909-9.364-16.115-14.257c-3.383-3.179-3.548-8.497-0.369-11.886c3.172-3.402,8.502-3.547,11.886-0.369
					c4.961,4.662,10.129,9.234,15.363,13.595c3.567,2.967,4.048,8.27,1.081,11.843
					C706.255,2034.808,705.653,2035.341,705.001,2035.778z"/>
				<path style="fill:#91B3FA;" d="M659.306,1989.994c-3.539,2.374-8.372,1.729-11.147-1.62c-7.849-9.46-15.3-19.432-22.143-29.634
					c-1.441-2.148-2.862-4.32-4.268-6.511c-2.504-3.917-1.061-9.107,2.542-11.623c3.911-2.505,9.111-1.365,11.617,2.541
					c1.342,2.096,2.699,4.172,4.076,6.225c6.528,9.732,13.635,19.243,21.115,28.266c2.968,3.576,2.472,8.873-1.099,11.842
					C659.771,1989.662,659.541,1989.837,659.306,1989.994z M612.214,1916.472c-0.33,0.222-0.682,0.428-1.048,0.604
					c-4.19,2.009-9.214,0.247-11.226-3.94c-6.456-13.429-12.135-27.379-16.875-41.454c-1.485-4.403,0.908-9.172,5.284-10.653
					c4.405-1.482,9.168,0.881,10.653,5.283c4.524,13.43,9.942,26.734,16.097,39.543
					C616.931,1909.67,615.631,1914.18,612.214,1916.472z M584.358,1833.726c-0.886,0.594-1.901,1.027-3.009,1.257
					c-4.55,0.926-8.989-2.02-9.914-6.57c-2.957-14.58-5.04-29.507-6.172-44.36c-0.356-4.637,3.102-8.666,7.746-9.023
					c4.627-0.355,8.669,3.114,9.024,7.741c1.082,14.165,3.061,28.393,5.887,42.298
					C588.614,1828.507,587.103,1831.884,584.358,1833.726z M577.696,1746.66c-1.446,0.97-3.203,1.497-5.073,1.415
					c-4.638-0.221-8.226-4.162-8.005-8.8c0.706-14.89,2.343-29.861,4.868-44.508c0.793-4.576,5.151-7.638,9.716-6.853
					c4.576,0.786,7.646,5.134,6.859,9.717c-2.41,13.957-3.971,28.244-4.643,42.439
					C581.287,1742.837,579.834,1745.226,577.696,1746.66z M592.501,1660.61c-2.019,1.354-4.609,1.826-7.12,1.068
					c-4.443-1.34-6.957-6.032-5.62-10.479c4.305-14.25,9.526-28.371,15.526-41.967c1.869-4.26,6.837-6.178,11.087-4.302
					s6.176,6.842,4.301,11.086c-5.723,12.976-10.706,26.444-14.809,40.043C595.28,1657.995,594.059,1659.565,592.501,1660.61z
					 M627.738,1580.772c-2.615,1.754-6.118,1.957-9.004,0.235c-3.984-2.38-5.281-7.542-2.903-11.53
					c7.637-12.776,16.145-25.197,25.288-36.907c2.878-3.661,8.146-4.307,11.806-1.452c3.66,2.855,4.31,8.144,1.453,11.8
					c-8.72,11.169-16.828,23.005-24.108,35.186C629.611,1579.208,628.737,1580.102,627.738,1580.772z M681.411,1511.99
					c-3.273,2.196-7.746,1.844-10.63-1.047c-3.279-3.289-3.271-8.613,0.015-11.895c10.504-10.477,21.805-20.43,33.588-29.59
					c3.723-2.794,8.959-2.182,11.804,1.486c2.85,3.666,2.185,8.947-1.479,11.8c-11.246,8.73-22.023,18.224-32.038,28.214
					C682.278,1511.35,681.854,1511.693,681.411,1511.99z M789.239,1438.377c-0.402,0.27-0.838,0.512-1.301,0.714
					c-11.219,4.944-22.363,10.59-33.126,16.782c-1.636,0.929-3.231,1.86-4.809,2.81c-3.991,2.38-9.15,1.085-11.534-2.902
					c-2.395-3.991-1.139-9.283,2.897-11.535c1.689-1.005,3.38-2,5.095-2.973c11.247-6.466,22.93-12.384,34.695-17.567
					c4.252-1.873,9.211,0.052,11.084,4.303C793.911,1431.793,792.564,1436.147,789.239,1438.377z"/>
			</g>
			<g style="opacity:0.3;">
				<path style="fill:#91B3FA;" d="M1133.85,2054.977c-3.812,2.557-8.988,1.579-11.605-2.213c-2.636-3.819-1.677-9.06,2.147-11.694
					c11.51-7.938,22.632-16.645,33.058-25.882c3.482-3.028,8.791-2.763,11.872,0.718c3.081,3.48,2.754,8.792-0.718,11.872
					c-10.939,9.681-22.596,18.815-34.66,27.135C1133.915,2054.933,1133.88,2054.956,1133.85,2054.977z M1097.033,2077.23
					c-0.253,0.169-0.511,0.322-0.785,0.467c-12.957,6.813-26.462,12.905-40.135,18.111c-4.343,1.648-9.197-0.525-10.848-4.866
					c-1.659-4.345,0.552-9.2,4.861-10.855c13.049-4.966,25.933-10.781,38.301-17.277c4.108-2.162,9.193-0.579,11.352,3.53
					C1101.8,2070.186,1100.552,2074.87,1097.033,2077.23z M1198.108,1998.031c-3.097,2.077-7.317,1.902-10.246-0.682
					c-3.477-3.067-3.812-8.38-0.74-11.864c9.25-10.496,17.941-21.635,25.827-33.125c2.651-3.824,7.864-4.8,11.693-2.167
					c3.827,2.624,4.801,7.864,2.173,11.693c-8.268,12.042-17.381,23.722-27.082,34.718
					C1199.241,1997.163,1198.695,1997.637,1198.108,1998.031z M1016.725,2107.742c-0.794,0.533-1.693,0.938-2.677,1.183
					c-14.225,3.5-28.81,6.154-43.346,7.885c-4.612,0.552-8.796-2.742-9.348-7.355c-0.543-4.599,2.749-8.785,7.354-9.342
					c13.861-1.655,27.762-4.186,41.326-7.519c4.509-1.107,9.067,1.65,10.173,6.159
					C1021.072,2102.275,1019.575,2105.83,1016.725,2107.742z M1246.69,1927.246c-2.472,1.658-5.752,1.951-8.572,0.48
					c-4.125-2.147-5.723-7.226-3.58-11.343c6.448-12.374,12.203-25.272,17.103-38.348c1.631-4.357,6.481-6.553,10.83-4.92
					c4.348,1.632,6.553,6.481,4.921,10.829c-5.145,13.705-11.175,27.232-17.931,40.209
					C1248.785,1925.445,1247.819,1926.489,1246.69,1927.246z M1276.875,1846.87c-1.893,1.269-4.288,1.768-6.671,1.191
					c-4.513-1.096-7.286-5.643-6.189-10.156c3.299-13.595,5.805-27.507,7.445-41.343c0.547-4.618,4.734-7.912,9.34-7.363
					c4.612,0.545,7.904,4.724,7.358,9.333c-1.718,14.51-4.34,29.094-7.798,43.339
					C1279.843,1843.998,1278.559,1845.74,1276.875,1846.87z M1286.936,1761.57c-1.33,0.892-2.925,1.418-4.65,1.419
					c-4.644,0.02-8.423-3.734-8.44-8.38c-0.041-13.984-0.949-28.089-2.695-41.918c-0.574-4.599,2.686-8.813,7.293-9.39
					c4.609-0.58,8.813,2.681,9.396,7.293c1.824,14.499,2.78,29.293,2.83,43.962
					C1290.678,1757.478,1289.193,1760.056,1286.936,1761.57z"/>
				<path style="fill:#91B3FA;" d="M931.036,2117.945c-1.347,0.903-2.968,1.427-4.713,1.421c-7.197-0.027-14.425-0.271-21.487-0.715
					c-4.633-0.295-8.157-4.289-7.865-8.924c0.305-4.624,4.29-8.147,8.925-7.865c6.734,0.428,13.631,0.656,20.499,0.687
					c4.645,0.018,8.394,3.802,8.373,8.444C934.753,2113.889,933.277,2116.442,931.036,2117.945z"/>
			</g>
			<g>
				<path style="fill:#91B3FA;" d="M876.329,2023.836c1.737,0.529,3.62-0.102,4.686-1.573l30.43-41.949
					c24.149,1.583,48.726-0.674,72.797-7.072l37.935,35.258c1.33,1.237,3.299,1.493,4.902,0.639l54.851-29.248
					c1.603-0.856,2.487-2.633,2.202-4.427l-8.14-51.147c18.725-16.423,34.294-35.572,46.436-56.508l51.789-1.893
					c1.815-0.067,3.389-1.278,3.918-3.016l18.103-59.467c0.529-1.739-0.103-3.621-1.573-4.687l-41.949-30.429
					c1.583-24.15-0.674-48.727-7.072-72.797l35.259-37.935c1.237-1.331,1.493-3.299,0.639-4.902l-29.249-54.852
					c-0.855-1.604-2.633-2.488-4.426-2.201l-51.147,8.14c-16.422-18.726-35.572-34.294-56.507-46.435l-1.894-51.791
					c-0.067-1.814-1.277-3.388-3.014-3.917l-59.468-18.104c-1.737-0.53-3.619,0.103-4.686,1.573l-30.43,41.95
					c-24.15-1.584-48.726,0.674-72.797,7.072l-37.936-35.26c-1.33-1.236-3.298-1.494-4.902-0.639l-54.852,29.249
					c-1.603,0.854-2.486,2.632-2.201,4.426l8.14,51.147c-18.726,16.422-34.294,35.572-46.437,56.508l-51.788,1.893
					c-1.816,0.066-3.39,1.277-3.918,3.015l-18.104,59.467c-0.528,1.738,0.102,3.62,1.573,4.687l41.948,30.43
					c-1.583,24.15,0.675,48.726,7.073,72.797l-35.26,37.935c-1.236,1.329-1.493,3.299-0.637,4.902l29.248,54.851
					c0.856,1.603,2.632,2.487,4.426,2.202l51.147-8.14c16.423,18.724,35.571,34.293,56.506,46.435l1.894,51.79
					c0.066,1.815,1.277,3.388,3.015,3.918L876.329,2023.836z"/>
				<g>
					<path style="fill:#BDD0FB;" d="M961.408,1806.586c-11.266,7.556-24.602,11.291-38.396,10.626
						c-16.969-0.82-32.604-8.2-44.024-20.781c-23.571-25.957-21.628-66.259,4.334-89.843c26.044-23.561,66.28-21.627,89.852,4.339
						c11.424,12.579,17.262,28.854,16.44,45.819c-0.817,16.972-8.195,32.61-20.782,44.029
						C966.481,1802.907,963.997,1804.849,961.408,1806.586z M900.039,1714.806c-1.879,1.26-3.686,2.671-5.412,4.234
						c-19.096,17.347-20.525,46.991-3.184,66.092c8.398,9.248,19.901,14.684,32.38,15.282c12.487,0.602,24.447-3.702,33.711-12.091
						l0,0c9.251-8.401,14.682-19.905,15.285-32.383c0.602-12.487-3.694-24.457-12.097-33.713
						C944.948,1704.853,918.98,1702.1,900.039,1714.806z"/>
				</g>
				<g>
					<path style="fill:#BDD0FB;" d="M1014.706,1883.876c-4.419,2.964-9.024,5.726-13.813,8.286
						c-9.514,5.076-19.554,9.19-29.868,12.233c-0.464,0.133-0.929,0.267-1.393,0.4c-3.594,1.026-7.306-0.448-9.286-3.392
						c-0.48-0.716-0.857-1.521-1.105-2.392c-1.274-4.465,1.331-9.101,5.784-10.386c9.656-2.749,19.058-6.554,27.948-11.3
						l0.004-0.002c0.489-0.259,0.976-0.527,1.457-0.79c20.938-11.424,38.236-27.635,50.833-47.159
						c6.837-10.599,12.287-22.184,16.166-34.526c0.032-0.1,0.063-0.2,0.095-0.301c0.093-0.311,0.192-0.614,0.282-0.921
						c11.011-36.18,7.28-74.485-10.516-107.855c-2.3-4.321-4.802-8.487-7.492-12.496c-18.1-26.976-44.708-46.743-76.208-56.336
						c-36.181-11.012-74.481-7.273-107.848,10.52c-33.341,17.796-57.814,47.521-68.834,83.697
						c-11.012,36.18-7.28,74.485,10.516,107.855c2.261,4.248,4.735,8.364,7.397,12.332c11.55,17.211,26.73,31.699,44.511,42.376
						c1.095,0.66,1.987,1.524,2.652,2.523c1.757,2.619,1.961,6.13,0.227,9.014c-2.402,3.974-7.553,5.274-11.543,2.877
						c-19.895-11.948-36.885-28.16-49.805-47.407c-2.982-4.446-5.748-9.048-8.281-13.797
						c-19.91-37.341-24.087-80.193-11.762-120.674c12.325-40.473,39.636-73.744,77.004-93.636
						c37.335-19.911,80.184-24.091,120.665-11.762c35.24,10.724,65.006,32.84,85.256,63.022c3.005,4.48,5.809,9.146,8.384,13.974
						C1104.675,1750.138,1081.327,1839.189,1014.706,1883.876z"/>
				</g>
			</g>
		</g>
		<g>
			<g>
				
					<linearGradient id="SVGID_00000078730117570729957770000015124777629581002134_" gradientUnits="userSpaceOnUse" x1="1229.7068" y1="2780.5837" x2="2648.856" y2="509.9465" gradientTransform="matrix(1.0557 -2.000000e-04 -2.000000e-04 1 -29.6206 0.3764)">
					<stop  offset="0" style="stop-color:#09005D"/>
					<stop  offset="1" style="stop-color:#1A0F91"/>
				</linearGradient>
				<path style="fill:url(#SVGID_00000078730117570729957770000015124777629581002134_);" d="M2523.088,3191.494l-1336.913,5.752
					c-109.979,0.473-200.255-78.054-203.516-177.038c-14.483-439.634-50.537-1722.894-45.486-2141.477
					c0.868-71.944,64.551-130.496,144.41-132.915c310.549-9.407,1057.34-25.729,1404.282,21.288
					c73.062,9.901,127.902,65.163,130.55,131.656c14.674,368.347,62.155,1743.93,53.52,2162.333
					C2668.446,3133.254,2603.239,3191.149,2523.088,3191.494z"/>
				
					<linearGradient id="SVGID_00000023986622047885459410000016890027290583393676_" gradientUnits="userSpaceOnUse" x1="3115.4756" y1="-588.2175" x2="1600.509" y2="2416.4688">
					<stop  offset="0" style="stop-color:#4042E2"/>
					<stop  offset="1" style="stop-color:#4F52FF"/>
				</linearGradient>
				<path style="fill:url(#SVGID_00000023986622047885459410000016890027290583393676_);" d="M2470.903,3083.443l-1243.492,5.35
					c-62.864,0.271-114.279-44.312-115.459-100.114l-39.99-2007.294c-1.17-55.324,48.772-100.893,111.095-101.367l1232.366-9.072
					c44.563-0.34,81.212,31.025,82.466,70.574l61.356,2060.858C2560.649,3046.612,2520.744,3083.229,2470.903,3083.443z"/>
				
					<ellipse transform="matrix(0.9239 -0.3827 0.3827 0.9239 -179.41 740.1655)" style="fill:#FFFFFF;" cx="1770.828" cy="821.06" rx="27.387" ry="27.387"/>
			</g>
		</g>
		
			<linearGradient id="SVGID_00000056424617061773214770000003881536537782967202_" gradientUnits="userSpaceOnUse" x1="1175.8396" y1="2911.3499" x2="2967.738" y2="2871.3818">
			<stop  offset="0" style="stop-color:#FE7062"/>
			<stop  offset="1" style="stop-color:#FF928E"/>
		</linearGradient>
		<path style="fill:url(#SVGID_00000056424617061773214770000003881536537782967202_);" d="M2840.301,2986.163H1253.69
			c-15.59,0-28.346-12.756-28.346-28.346v-131.796c0-15.59,12.756-28.346,28.346-28.346h1586.611
			c15.59,0,28.346,12.756,28.346,28.346v131.796C2868.647,2973.407,2855.891,2986.163,2840.301,2986.163z"/>
		<g>
			<path style="fill:#FFFFFF;" d="M1416.368,2738.873v-252.064h46.896v211.031h64.997v41.034H1416.368z"/>
			<path style="fill:#FFFFFF;" d="M1731.706,2612.495c0,41.726-7.817,73.792-23.447,96.205
				c-15.634,22.413-37.99,33.621-67.068,33.621c-29.198,0-51.611-11.176-67.241-33.534c-15.632-22.355-23.447-54.567-23.447-96.637
				c0-41.722,7.815-73.704,23.447-95.945c15.63-22.241,38.161-33.362,67.585-33.362c29.079,0,51.378,11.179,66.895,33.534
				S1731.706,2570.773,1731.706,2612.495z M1598.433,2612.495c0,28.738,3.62,50.632,10.861,65.691
				c7.242,15.059,17.872,22.585,31.897,22.585c28.275,0,42.412-29.423,42.412-88.276c0-58.846-14.025-88.273-42.068-88.273
				c-14.254,0-24.999,7.5-32.241,22.498C1602.053,2561.72,1598.433,2583.646,1598.433,2612.495z"/>
			<path style="fill:#FFFFFF;" d="M1887.739,2738.873l-14.483-63.619h-65.688l-14.483,63.619h-46.896l62.413-253.1h63.619
				l62.585,253.1H1887.739z M1864.464,2633.704l-13.448-58.622c-0.805-3.559-2.615-12.497-5.43-26.809
				c-2.818-14.309-4.513-23.878-5.086-28.706c-1.495,9.886-3.391,20.777-5.69,32.673c-2.3,11.896-8.275,39.05-17.931,81.464
				H1864.464z"/>
			<path style="fill:#FFFFFF;" d="M2117.39,2610.427c0,41.612-8.478,73.422-25.431,95.429
				c-16.955,22.014-41.351,33.017-73.188,33.017h-61.723v-252.064h67.413c29.309,0,52.124,10.835,68.446,32.498
				C2109.228,2540.976,2117.39,2571.351,2117.39,2610.427z M2069.288,2611.807c0-56.32-15.517-84.48-46.55-84.48h-18.793v170.513
				h15.171c17.126,0,29.769-7.156,37.932-21.465C2065.207,2662.065,2069.288,2640.542,2069.288,2611.807z"/>
			<path style="fill:#FFFFFF;" d="M2162.563,2738.873v-252.064h44.136v252.064H2162.563z"/>
			<path style="fill:#FFFFFF;" d="M2436.522,2738.873h-57.241l-77.93-182.581h-2.24c2.872,13.906,4.31,28.852,4.31,44.826v137.755
				h-43.448v-252.064h57.585l77.24,180.685h1.896c-2.184-12.069-3.274-26.433-3.274-43.102v-137.583h43.102V2738.873z"/>
			<path style="fill:#FFFFFF;" d="M2557.21,2599.046h77.068v129.31c-21.84,9.309-45.059,13.965-69.655,13.965
				c-29.31,0-51.867-11.146-67.67-33.446c-15.806-22.3-23.707-54.424-23.707-96.38c0-40.456,9.051-72.123,27.155-94.997
				c18.103-22.871,43.417-34.31,75.946-34.31c20.113,0,39.31,5.172,57.585,15.517l-14.827,38.274
				c-14.254-8.276-27.585-12.413-40-12.413c-17.817,0-31.925,7.961-42.326,23.878c-10.405,15.923-15.603,37.615-15.603,65.087
				c0,28.274,3.763,49.943,11.292,64.999c7.526,15.059,18.475,22.585,32.844,22.585c7.586,0,15.286-0.974,23.103-2.932v-57.755
				h-31.206V2599.046z"/>
		</g>
		<g>
			<circle style="fill:#91B3FA;" cx="1803.716" cy="1663.65" r="604.779"/>
			<circle style="fill:#FFFFFF;" cx="1803.716" cy="1663.65" r="569.754"/>
			<g>
				<path style="opacity:0.5;fill:#91B3FA;" d="M1844.058,1635.901l482.366-13.133c-29.714-287.289-207.256-466.828-487.244-495.643
					L1844.058,1635.901z"/>
			</g>
			<g>
				<path style="fill:#91B3FA;" d="M1754.049,2155.328c-31.408-2.705-62.835-8.617-93.878-17.886
					c-252.214-75.31-393.239-346.242-311.488-601.934c40.416-126.404,127.833-228.231,245.625-286.646
					c14.398-7.143,31.828-1.188,38.929,13.294c7.098,14.474,1.199,32.003-13.182,39.161
					c-103.284,51.409-179.883,140.829-215.279,251.725c-71.568,224.231,51.92,461.949,273.062,528.356
					c160.444,48.181,333.174-5.719,440.677-136.308c10.128-12.302,27.947-14.073,39.795-3.961
					c11.842,10.104,13.249,28.255,3.145,40.553C2060.049,2105.123,1907.48,2168.542,1754.049,2155.328z"/>
				<polygon style="fill:#91B3FA;" points="1537.748,1411.878 1591.456,1282.081 1462.098,1228.058 1539.933,1195.979 
					1668.683,1250.022 1615.26,1379.469 				"/>
			</g>
			<g>
				
					<linearGradient id="SVGID_00000013183558474622579020000008671479721117117329_" gradientUnits="userSpaceOnUse" x1="2020.4988" y1="1019.2369" x2="1634.8213" y2="2123.072">
					<stop  offset="0" style="stop-color:#4042E2"/>
					<stop  offset="1" style="stop-color:#4F52FF"/>
				</linearGradient>
				<path style="fill:url(#SVGID_00000013183558474622579020000008671479721117117329_);" d="M1830.759,1657.057
					c0,19.28-14.903,35.226-33.308,35.616c-18.428,0.39-33.384-14.958-33.384-34.281c0-19.324,14.956-35.27,33.384-35.617
					C1815.856,1622.427,1830.759,1637.777,1830.759,1657.057z"/>
				
					<linearGradient id="SVGID_00000174561390374248299430000000933394884180721329_" gradientUnits="userSpaceOnUse" x1="2021.4174" y1="355.375" x2="1908.3743" y2="947.1879">
					<stop  offset="0" style="stop-color:#4042E2"/>
					<stop  offset="1" style="stop-color:#4F52FF"/>
				</linearGradient>
				<path style="fill:url(#SVGID_00000174561390374248299430000000933394884180721329_);" d="M1796.968,1404.746
					c-7.17,0.112-12.517,3.903-12.517,14.996l-0.47,219.53c0,11.093,5.817,19.913,12.987,19.701
					c7.164-0.212,12.968-9.363,12.968-20.44l-0.46-219.151C1809.476,1408.304,1804.132,1404.633,1796.968,1404.746z"/>
				
					<linearGradient id="SVGID_00000124133839394480273280000005193757995241882242_" gradientUnits="userSpaceOnUse" x1="1943.5166" y1="340.4943" x2="1830.473" y2="932.3091">
					<stop  offset="0" style="stop-color:#4042E2"/>
					<stop  offset="1" style="stop-color:#4F52FF"/>
				</linearGradient>
				<path style="fill:url(#SVGID_00000124133839394480273280000005193757995241882242_);" d="M1795.625,1662.404L1795.625,1662.404
					c-3.843-4.495-10.437-4.745-14.728-0.557l-242.698,241.709c-4.376,4.271-4.745,11.385-0.822,15.886
					c3.921,4.5,10.644,4.682,15.015,0.41l242.428-241.731C1799.106,1673.933,1799.467,1666.897,1795.625,1662.404z"/>
			</g>
		</g>
		<g>
			<g>
				<g>
					
						<linearGradient id="SVGID_00000157271793551863799350000009574696025284985763_" gradientUnits="userSpaceOnUse" x1="3119.718" y1="308.0628" x2="2900.2813" y2="756.9105">
						<stop  offset="0" style="stop-color:#FF928E"/>
						<stop  offset="1" style="stop-color:#FEB3B1"/>
					</linearGradient>
					<path style="fill:url(#SVGID_00000157271793551863799350000009574696025284985763_);" d="M2867.073,1250.36l-5.172-4.494
						c-0.147-0.127-0.425-0.385-0.83-0.764c-1.437-1.34-4.428-4.136-8.788-7.733c-1.179-0.974-1.431-2.83-0.561-4.153
						c0.87-1.322,2.531-1.601,3.707-0.629c1.86,1.535,3.477,2.927,4.837,4.127c0.341-0.89,1.066-1.58,1.981-1.758
						c1.443-0.284,2.817,0.796,3.07,2.414c0.579,3.706,0.836,5.731,0.836,5.731L2867.073,1250.36z M2860.564,1221.415
						c-0.215,0.131-0.447,0.229-0.697,0.291c-1.429,0.354-2.846-0.653-3.165-2.252c-1.233-6.197-2.602-12.524-4.07-18.794
						c-0.369-1.585,0.467-3.211,1.896-3.625c1.415-0.414,2.866,0.533,3.236,2.118c1.485,6.347,2.87,12.741,4.116,19.008
						C2862.142,1219.483,2861.576,1220.797,2860.564,1221.415z M2840.682,1226.772c-0.801,0.489-1.804,0.5-2.642-0.064
						c-5-3.375-10.066-6.425-15.06-9.056c-1.326-0.7-1.893-2.467-1.271-3.953c0.63-1.473,2.207-2.12,3.531-1.42
						c5.159,2.72,10.387,5.862,15.54,9.343c1.254,0.846,1.66,2.674,0.901,4.078
						C2841.429,1226.165,2841.083,1226.528,2840.682,1226.772z M2809.257,1210.364c-0.619,0.378-1.37,0.481-2.09,0.218
						c-5.563-2.034-11.095-3.554-16.448-4.522c-1.445-0.26-2.428-1.786-2.194-3.403c0.235-1.622,1.597-2.721,3.042-2.458
						c5.621,1.017,11.422,2.611,17.243,4.738c1.394,0.511,2.154,2.186,1.7,3.742
						C2810.292,1209.43,2809.83,1210.014,2809.257,1210.364z M2851.771,1183.798c-0.159,0.097-0.329,0.175-0.51,0.238
						c-1.404,0.472-2.882-0.419-3.304-1.99c-1.656-6.168-3.431-12.359-5.274-18.405c-0.471-1.549,0.274-3.236,1.653-3.767
						c1.386-0.531,2.896,0.299,3.368,1.852c1.864,6.111,3.658,12.372,5.332,18.611
						C2853.406,1181.707,2852.848,1183.14,2851.771,1183.798z M2775.126,1204.421c-0.355,0.216-0.76,0.343-1.19,0.358
						c-4.023,0.135-8.014,0.613-11.867,1.418c-1.714,0.359-3.385,0.674-5.011,0.949c-1.448,0.245-2.799-0.872-3.017-2.493
						c-0.217-1.619,0.774-3.135,2.227-3.378c1.566-0.264,3.173-0.568,4.826-0.913c4.123-0.862,8.389-1.374,12.682-1.517
						c1.463-0.051,2.688,1.238,2.732,2.879C2776.539,1202.88,2775.976,1203.902,2775.126,1204.421z M2715.166,1235.618l-4.684,2.734
						c-2.069-3.608-5.037-5.838-9.928-7.46c-1.404-0.466-2.205-2.116-1.787-3.69c0.414-1.57,1.889-2.47,3.297-2.003
						c3.871,1.286,6.882,2.979,9.274,5.274c1.11-0.081,2.188,0.632,2.63,1.848L2715.166,1235.618z M2740.655,1208.223
						c-0.39,0.239-0.838,0.369-1.311,0.36c-6.472-0.116-12.464-1.05-17.812-2.769c-1.406-0.455-2.22-2.098-1.816-3.676
						c0.402-1.577,1.874-2.484,3.282-2.034c4.898,1.579,10.426,2.432,16.429,2.541c1.465,0.027,2.635,1.378,2.611,3.018
						C2742.023,1206.77,2741.467,1207.728,2740.655,1208.223z M2840.544,1147.015c-0.101,0.062-0.209,0.114-0.319,0.165
						c-1.367,0.588-2.903-0.173-3.428-1.703c-2.082-6.046-4.281-12.06-6.534-17.873c-0.583-1.507,0.04-3.24,1.38-3.906
						c1.343-0.651,2.904,0.039,3.488,1.541c2.281,5.89,4.506,11.979,6.614,18.102
						C2842.228,1144.745,2841.694,1146.312,2840.544,1147.015z M2706.35,1217.928c-0.1,0.061-0.204,0.111-0.312,0.16
						c-1.366,0.596-2.904-0.163-3.434-1.69c-2.45-7.054-4.517-13.213-6.146-18.309c-0.493-1.544,0.241-3.228,1.603-3.796
						c1.38-0.553,2.897,0.25,3.391,1.794c1.612,5.045,3.665,11.157,6.096,18.158
						C2708.037,1215.653,2707.503,1217.224,2706.35,1217.928z M2685.549,1227.04c-0.499,0.305-1.087,0.435-1.693,0.325
						c-5.146-0.935-10.794-2.048-17.225-3.828c-1.422-0.394-2.291-2.003-1.94-3.597c0.355-1.59,1.796-2.556,3.213-2.168
						c6.248,1.731,11.767,2.814,16.803,3.731c1.445,0.263,2.428,1.79,2.192,3.407
						C2686.762,1225.85,2686.244,1226.616,2685.549,1227.04z M2708.152,1196.882c-0.908,0.554-2.063,0.481-2.925-0.286
						c-5.052-4.497-8.093-9.341-9.911-12.238c-0.569-0.906-1.023-1.644-1.412-2.137c-1.088-1.1-1.29-3.116-0.307-4.329
						c0.977-1.214,2.542-1.452,3.63-0.349c0.195,0.198,0.415,0.444,0.652,0.744c0.485,0.616,1.068,1.526,1.779,2.657
						c1.759,2.803,4.419,7.041,8.875,11.007c1.146,1.021,1.336,2.889,0.424,4.172
						C2708.729,1196.443,2708.454,1196.697,2708.152,1196.882z M2826.697,1111.371c-0.034,0.02-0.069,0.042-0.104,0.064
						c-1.316,0.72-2.905,0.109-3.548-1.362c-2.264-5.175-4.622-10.284-7.01-15.185l-0.944-1.926
						c-0.707-1.436-0.241-3.242,1.042-4.033l0.009-0.005c1.285-0.784,2.887-0.262,3.594,1.169l0.957,1.953
						c2.425,4.978,4.818,10.164,7.113,15.416C2828.434,1108.893,2827.937,1110.615,2826.697,1111.371z M2651.965,1217.569
						c-0.649,0.395-1.44,0.49-2.188,0.181c-5.366-2.214-10.811-4.834-16.179-7.781c-1.315-0.723-1.857-2.502-1.212-3.976
						c0.642-1.468,2.233-2.076,3.549-1.358c5.206,2.86,10.481,5.398,15.676,7.543c1.375,0.565,2.08,2.275,1.572,3.812
						C2652.952,1216.694,2652.508,1217.237,2651.965,1217.569z M2620.836,1200.582c-0.802,0.49-1.81,0.5-2.648-0.069
						c-1.063-0.721-2.137-1.462-3.219-2.223c-3.952-2.779-7.768-5.809-11.342-9.014c-1.143-1.022-1.33-2.892-0.415-4.172
						c0.928-1.28,2.588-1.486,3.73-0.462c3.418,3.062,7.067,5.961,10.849,8.619c1.058,0.745,2.106,1.467,3.148,2.175
						c1.251,0.849,1.652,2.675,0.891,4.077C2621.58,1199.977,2621.233,1200.34,2620.836,1200.582z M2809.871,1077.4
						c-1.22,0.744-2.764,0.308-3.513-1.029c-3.092-5.512-6.315-10.888-9.581-15.979c-0.852-1.329-0.58-3.185,0.609-4.14
						c1.189-1.011,2.849-0.65,3.702,0.679c3.329,5.19,6.613,10.668,9.763,16.283c0.778,1.388,0.405,3.219-0.836,4.094
						C2809.967,1077.341,2809.92,1077.37,2809.871,1077.4z M2593.868,1176.336c-1.043,0.637-2.377,0.427-3.22-0.597
						c-3.988-4.84-7.689-10.085-10.999-15.585c-0.818-1.359-0.497-3.203,0.718-4.12c1.255-0.878,2.866-0.557,3.683,0.804
						c3.161,5.249,6.694,10.254,10.5,14.877c0.993,1.205,0.924,3.084-0.154,4.195
						C2594.233,1176.079,2594.055,1176.222,2593.868,1176.336z M2789.6,1045.889c-1.09,0.666-2.486,0.398-3.31-0.716
						c-3.693-4.986-7.543-9.797-11.441-14.299c-1.019-1.177-0.994-3.059,0.06-4.199c1.053-1.127,2.729-1.113,3.75,0.067
						c3.99,4.61,7.934,9.537,11.716,14.641c0.935,1.262,0.779,3.134-0.35,4.181C2789.892,1045.69,2789.749,1045.798,2789.6,1045.889
						z M2574.509,1144.248c-0.04,0.024-0.08,0.049-0.124,0.071c-1.32,0.711-2.904,0.087-3.537-1.389
						c-2.53-5.899-4.728-12.103-6.531-18.432c-0.445-1.566,0.327-3.246,1.722-3.731c1.397-0.498,2.888,0.364,3.334,1.924
						c1.729,6.072,3.834,12.018,6.257,17.666C2576.244,1141.788,2575.74,1143.496,2574.509,1144.248z M2765.434,1018.065
						c-0.943,0.576-2.148,0.469-3.008-0.364c-4.346-4.22-8.86-8.203-13.421-11.841c-1.192-0.954-1.47-2.807-0.62-4.143
						c0.854-1.333,2.508-1.642,3.7-0.694c4.695,3.748,9.343,7.847,13.815,12.19c1.107,1.075,1.227,2.951,0.266,4.189
						C2765.955,1017.679,2765.705,1017.9,2765.434,1018.065z M2563.987,1107.341c-0.25,0.152-0.526,0.26-0.821,0.315
						c-1.444,0.28-2.816-0.805-3.064-2.422c-0.666-4.331-2.132-16.39-1.149-20.559l-0.039-0.011l1.876-8.13
						c0.368-1.586,1.813-2.547,3.231-2.132c1.418,0.41,2.271,2.029,1.904,3.614l-1.935,8.391c-0.146,1.476-0.154,8.098,1.342,17.823
						C2565.528,1105.514,2564.956,1106.749,2563.987,1107.341z M2737.204,995.602c-0.778,0.474-1.755,0.5-2.583-0.027
						c-4.96-3.153-10.093-6.019-15.255-8.519c-1.345-0.653-1.963-2.397-1.382-3.902c0.585-1.503,2.144-2.199,3.487-1.55
						c5.337,2.586,10.642,5.546,15.77,8.809c1.273,0.81,1.719,2.62,0.997,4.047C2737.985,994.961,2737.623,995.345,2737.204,995.602
						z M2705.425,980.218c-0.606,0.369-1.336,0.479-2.048,0.234c-5.379-1.851-10.944-3.4-16.54-4.599
						c-1.439-0.306-2.382-1.862-2.106-3.474c0.277-1.608,1.668-2.665,3.104-2.356c5.786,1.24,11.537,2.838,17.1,4.75
						c1.401,0.485,2.188,2.144,1.757,3.713C2706.479,979.255,2706.01,979.86,2705.425,980.218z M2568.967,1061.071
						c-0.57,0.348-1.253,0.467-1.933,0.268c-1.418-0.41-2.27-2.029-1.906-3.618l4.344-18.807c0.367-1.59,1.811-2.549,3.232-2.133
						c1.418,0.41,2.271,2.029,1.904,3.614l-4.342,18.81C2570.075,1060.036,2569.59,1060.691,2568.967,1061.071z M2671.433,972.906
						c-0.443,0.27-0.956,0.401-1.494,0.349c-5.548-0.529-11.291-0.762-17.067-0.69c-1.465,0.016-2.664-1.296-2.681-2.936
						c-0.02-1.645,1.155-2.983,2.623-3.002c5.945-0.072,11.858,0.167,17.574,0.71c1.461,0.141,2.542,1.578,2.419,3.213
						C2672.727,971.58,2672.187,972.445,2671.433,972.906z M2577.653,1023.449c-0.57,0.348-1.253,0.467-1.933,0.268
						c-1.418-0.41-2.27-2.029-1.904-3.614l4.341-18.81c0.367-1.591,1.813-2.546,3.232-2.133c1.417,0.41,2.27,2.029,1.903,3.614
						l-4.341,18.814C2578.76,1022.414,2578.275,1023.07,2577.653,1023.449z M2636.81,973.304c-0.302,0.184-0.641,0.305-1.003,0.344
						c-5.535,0.622-11.242,1.519-16.961,2.672c-1.441,0.291-2.821-0.781-3.08-2.395c-0.26-1.613,0.69-3.17,2.142-3.448
						c5.853-1.181,11.698-2.1,17.368-2.738c1.458-0.164,2.759,1.027,2.904,2.659C2638.291,971.622,2637.719,972.749,2636.81,973.304
						z M2602.709,980.14c-0.19,0.116-0.398,0.209-0.619,0.27c-4.934,1.404-9.993,3.018-15.054,4.805
						c-0.641,0.793-1.642,1.171-2.631,0.885c-1.419-0.413-2.272-2.032-1.905-3.618l0.472-2.052l1.395-0.497
						c5.512-1.972,11.035-3.748,16.417-5.279c1.419-0.404,2.862,0.557,3.224,2.147
						C2604.313,978.146,2603.748,979.506,2602.709,980.14z"/>
					
						<linearGradient id="SVGID_00000116203540130773206780000006531448226988444570_" gradientUnits="userSpaceOnUse" x1="2541.1375" y1="1032.3107" x2="2860.3188" y2="1158.6532">
						<stop  offset="0" style="stop-color:#FE7062"/>
						<stop  offset="1" style="stop-color:#FF928E"/>
					</linearGradient>
					<path style="fill:url(#SVGID_00000116203540130773206780000006531448226988444570_);" d="M2575.166,1045.089
						c0,0,6.358,85.801,63.13,87.371c56.772,1.57,114.4-12.62,132.922,8.948c0,0-40.666-162.084-186.414-124.712L2575.166,1045.089z
						"/>
					
						<linearGradient id="SVGID_00000115480087983847439440000008599869975463965072_" gradientUnits="userSpaceOnUse" x1="10400.4932" y1="-8548.752" x2="10875.9404" y2="-9044.1475" gradientTransform="matrix(0.3746 -0.9272 0.9272 0.3746 1424.9161 2652.7251)">
						<stop  offset="0" style="stop-color:#FE7062"/>
						<stop  offset="1" style="stop-color:#FF928E"/>
					</linearGradient>
					<path style="fill:url(#SVGID_00000115480087983847439440000008599869975463965072_);" d="M2414.71,1069.856
						c0,0-20.505,81.352-2.117,101.281c17.491,18.956,180.452,76.838,196.313,82.441c0.713,0.252,1.456-0.161,1.736-0.937l0,0
						c2.319-6.42,1.768-13.673-1.497-19.555c-15.766-28.413-63.489-112.799-85.229-133.134
						C2497.662,1075.395,2414.71,1069.856,2414.71,1069.856z"/>
					<path style="opacity:0.68;fill:#FFFFFF;" d="M2554.286,1222.175c-0.409,0.249-0.906,0.316-1.383,0.135
						c-0.894-0.336-89.652-33.763-127.36-49.821c-6.712-2.857-11.295-9.88-11.672-17.887c-0.725-15.433-0.891-38.598,2.44-61.334
						c0.155-1.058,1.045-1.779,1.994-1.602c0.946,0.175,1.588,1.175,1.434,2.233c-3.456,23.574-2.988,48.022-2.4,60.496
						c0.306,6.474,4.012,12.152,9.44,14.461c37.645,16.031,126.34,49.437,127.231,49.771c0.909,0.34,1.397,1.442,1.093,2.462
						C2554.956,1221.572,2554.656,1221.949,2554.286,1222.175z"/>
					
						<linearGradient id="SVGID_00000075872872098913476760000001371609368293633932_" gradientUnits="userSpaceOnUse" x1="10554.4756" y1="-8400.9795" x2="11029.9219" y2="-8896.374" gradientTransform="matrix(0.3746 -0.9272 0.9272 0.3746 1424.9161 2652.7251)">
						<stop  offset="0" style="stop-color:#FE7062"/>
						<stop  offset="1" style="stop-color:#FF928E"/>
					</linearGradient>
					<path style="fill:url(#SVGID_00000075872872098913476760000001371609368293633932_);" d="M2480.439,887.784
						c0,0,35.743-74.46,61.337-74.494c24.345-0.032,177.481,85.067,192.368,93.372c0.669,0.373,0.947,1.248,0.667,2.024l0,0
						c-2.318,6.42-7.215,11.208-13.215,12.901c-28.974,8.176-115.675,31.758-143.933,29.477
						C2543.539,948.309,2480.439,887.784,2480.439,887.784z"/>
					<path style="opacity:0.68;fill:#FFFFFF;" d="M2674.544,889.059c-0.472,0.288-1.054,0.328-1.577,0.051
						c-0.851-0.454-85.377-45.402-122.4-63.148c-5.34-2.563-11.531-1.364-15.767,3.058c-8.166,8.515-23.676,25.735-35.825,45.378
						c-0.536,0.894-1.626,1.1-2.415,0.492c-0.787-0.609-0.983-1.82-0.438-2.702c12.332-19.944,28.045-37.388,36.312-46.013
						c5.247-5.462,12.902-6.949,19.5-3.788c37.086,17.776,121.673,62.761,122.524,63.21c0.866,0.461,1.234,1.62,0.823,2.588
						C2675.116,888.572,2674.853,888.87,2674.544,889.059z"/>
					
						<linearGradient id="SVGID_00000183216227270907068020000013985726938598864054_" gradientUnits="userSpaceOnUse" x1="2065.9492" y1="24.0806" x2="2268.7622" y2="605.9203">
						<stop  offset="0" style="stop-color:#FF928E"/>
						<stop  offset="1" style="stop-color:#FEB3B1"/>
					</linearGradient>
					<path style="fill:url(#SVGID_00000183216227270907068020000013985726938598864054_);" d="M2179.922,962.476
						c28.096,26.458,62.545,51.535,104.207,70.537c129.35,58.998,233.539,77.319,263.287,81.641
						c5.381,0.783,10.67-1.853,13.865-6.764c25.17-38.695,41.007-81.662,47.569-128.877c1.234-8.881-2.131-17.798-8.615-23.1
						c-28.142-23.005-112.519-87.529-236.584-143.178c-41.443-18.59-81.49-27.354-117.897-30.243
						C2201.878,846.223,2186.489,920.08,2179.922,962.476z"/>
					
						<linearGradient id="SVGID_00000017487484609994597470000012329867909342579376_" gradientUnits="userSpaceOnUse" x1="10289.835" y1="-8654.9648" x2="10765.2813" y2="-9150.3594" gradientTransform="matrix(0.3746 -0.9272 0.9272 0.3746 1424.9161 2652.7251)">
						<stop  offset="0" style="stop-color:#FE7062"/>
						<stop  offset="1" style="stop-color:#FF928E"/>
					</linearGradient>
					<path style="fill:url(#SVGID_00000017487484609994597470000012329867909342579376_);" d="M2245.753,782.491
						c-80.42-6.381-143.067,15.931-163.684,24.5c-4.03,1.674-5.893,6.836-4.034,11.174c9.478,22.119,40.51,86.515,101.887,144.311
						C2186.489,920.08,2201.878,846.223,2245.753,782.491z"/>
					<g>
						
							<linearGradient id="SVGID_00000183224294400498535530000001945590928457299131_" gradientUnits="userSpaceOnUse" x1="5994.5283" y1="-5690.5845" x2="6293.7603" y2="-6142.7568" gradientTransform="matrix(0.878 -0.4787 0.4787 0.878 458.2761 821.3813)">
							<stop  offset="0" style="stop-color:#FE7062"/>
							<stop  offset="1" style="stop-color:#FF928E"/>
						</linearGradient>
						<path style="fill:url(#SVGID_00000183224294400498535530000001945590928457299131_);" d="M2341.666,846.188
							c33.543,15.173,48.943,60.142,34.395,100.441c-14.548,40.299-53.535,60.669-87.078,45.495
							c-33.544-15.173-48.943-60.142-34.394-100.441C2269.136,851.384,2308.122,831.016,2341.666,846.188z"/>
						
							<linearGradient id="SVGID_00000127004690919061487940000003570028074508622010_" gradientUnits="userSpaceOnUse" x1="1881.2996" y1="174.2418" x2="2004.9172" y2="174.2418" gradientTransform="matrix(0.3746 -0.9272 0.9272 0.3746 1424.9161 2652.7251)">
							<stop  offset="0" style="stop-color:#09005D"/>
							<stop  offset="1" style="stop-color:#1A0F91"/>
						</linearGradient>
						<path style="fill:url(#SVGID_00000127004690919061487940000003570028074508622010_);" d="M2335.351,858.204
							c26.729,12.09,38.999,47.922,27.406,80.032c-11.592,32.111-42.656,48.341-69.385,36.251
							c-26.728-12.09-38.998-47.922-27.406-80.032C2277.558,862.344,2308.623,846.115,2335.351,858.204z"/>
						<path style="fill:#91B3FA;" d="M2290.662,952.995c-0.598,0.365-1.36,0.316-1.924-0.195
							c-14.406-13.07-19.408-36.209-12.167-56.265c1.828-5.058,4.323-9.706,7.419-13.809c0.619-0.818,1.714-0.925,2.447-0.231
							c0.732,0.69,0.825,1.917,0.207,2.736c-2.858,3.793-5.164,8.083-6.852,12.762c-6.674,18.488-2.096,39.785,11.133,51.787
							c0.745,0.678,0.86,1.9,0.255,2.731C2291.031,952.718,2290.855,952.877,2290.662,952.995z"/>
					</g>
					<g>
						
							<linearGradient id="SVGID_00000026854647435561614470000004765869443571440796_" gradientUnits="userSpaceOnUse" x1="6099.877" y1="-5620.873" x2="6399.1089" y2="-6073.0454" gradientTransform="matrix(0.878 -0.4787 0.4787 0.878 458.2761 821.3813)">
							<stop  offset="0" style="stop-color:#FE7062"/>
							<stop  offset="1" style="stop-color:#FF928E"/>
						</linearGradient>
						<path style="fill:url(#SVGID_00000026854647435561614470000004765869443571440796_);" d="M2454.787,926.164
							c22.161,10.023,32.333,39.732,22.723,66.355c-9.611,26.623-35.367,40.079-57.527,30.055
							c-22.16-10.023-32.333-39.732-22.723-66.355C2406.872,929.596,2432.628,916.14,2454.787,926.164z"/>
						
							<linearGradient id="SVGID_00000134232049780259480220000018186962031761307810_" gradientUnits="userSpaceOnUse" x1="1896.0458" y1="308.7566" x2="1977.7112" y2="308.7566" gradientTransform="matrix(0.3746 -0.9272 0.9272 0.3746 1424.9161 2652.7251)">
							<stop  offset="0" style="stop-color:#09005D"/>
							<stop  offset="1" style="stop-color:#1A0F91"/>
						</linearGradient>
						<path style="fill:url(#SVGID_00000134232049780259480220000018186962031761307810_);" d="M2450.616,934.101
							c17.657,7.987,25.763,31.659,18.106,52.872c-7.658,21.214-28.18,31.935-45.838,23.948
							c-17.657-7.986-25.764-31.658-18.106-52.872C2412.436,936.836,2432.958,926.115,2450.616,934.101z"/>
						<path style="fill:#91B3FA;" d="M2421.376,997.303c-0.599,0.366-1.36,0.315-1.924-0.196c-9.716-8.813-13.096-24.41-8.216-37.93
							c1.23-3.405,2.912-6.532,5.001-9.298c0.608-0.82,1.712-0.924,2.446-0.23c0.73,0.69,0.824,1.917,0.204,2.737
							c-1.849,2.451-3.339,5.228-4.43,8.249c-4.314,11.946-1.362,25.705,7.181,33.453c0.746,0.677,0.86,1.9,0.255,2.731
							C2421.746,997.024,2421.569,997.184,2421.376,997.303z"/>
					</g>
				</g>
			</g>
			<g>
				<g>
					
						<linearGradient id="SVGID_00000086671555043722764870000003990832540866991287_" gradientUnits="userSpaceOnUse" x1="4026.5642" y1="978.3883" x2="3534.4939" y2="1433.8861">
						<stop  offset="0" style="stop-color:#FF928E"/>
						<stop  offset="1" style="stop-color:#FEB3B1"/>
					</linearGradient>
					<path style="fill:url(#SVGID_00000086671555043722764870000003990832540866991287_);" d="M2921.119,2705.84
						c-2.015-0.983-2.94-3.606-2.063-5.863l3.956-10.22c0.873-2.26,3.21-3.301,5.231-2.326c2.019,0.975,2.948,3.596,2.078,5.855
						l-3.966,10.245c-0.396,1.017-1.089,1.786-1.915,2.233C2923.433,2706.31,2922.226,2706.379,2921.119,2705.84z M2936.03,2666.901
						c-2.028-0.946-2.987-3.556-2.14-5.827c1.533-4.111,3.057-8.228,4.575-12.353c0.838-2.276,3.165-3.357,5.196-2.422
						c2.032,0.937,3.001,3.542,2.164,5.817c-1.522,4.137-3.053,8.267-4.589,12.39c-0.391,1.045-1.094,1.837-1.938,2.295
						C2938.307,2667.336,2937.125,2667.413,2936.03,2666.901z M2951.124,2625.631c-2.042-0.909-3.041-3.499-2.228-5.787
						c1.469-4.135,2.928-8.276,4.375-12.426c0.802-2.292,3.11-3.424,5.157-2.529c2.047,0.897,3.057,3.479,2.258,5.773
						c-1.454,4.163-2.918,8.322-4.393,12.474c-0.383,1.077-1.1,1.896-1.964,2.364
						C2953.36,2626.025,2952.204,2626.11,2951.124,2625.631z M2965.55,2584.077c-2.057-0.865-3.098-3.434-2.325-5.737
						c1.396-4.163,2.783-8.333,4.156-12.508c0.76-2.303,3.046-3.488,5.111-2.641c2.062,0.85,3.119,3.412,2.359,5.721
						c-1.379,4.192-2.773,8.381-4.177,12.562c-0.372,1.115-1.103,1.962-1.991,2.444
						C2967.737,2584.431,2966.612,2584.525,2965.55,2584.077z M2979.241,2542.23c-2.073-0.818-3.164-3.359-2.436-5.681
						c1.317-4.196,2.624-8.395,3.918-12.597c0.721-2.328,2.981-3.565,5.06-2.761c2.079,0.803,3.182,3.336,2.467,5.664
						c-1.298,4.219-2.611,8.436-3.934,12.648c-0.364,1.157-1.11,2.039-2.023,2.533
						C2981.374,2542.535,2980.283,2542.637,2979.241,2542.23z M2992.12,2500.076c-2.089-0.763-3.23-3.279-2.546-5.616
						c1.232-4.224,2.453-8.449,3.655-12.679c0.67-2.343,2.908-3.638,5.002-2.892c2.094,0.749,3.25,3.254,2.584,5.6
						c-1.212,4.249-2.436,8.495-3.676,12.739c-0.35,1.199-1.11,2.118-2.05,2.626
						C2994.195,2500.337,2993.138,2500.45,2992.12,2500.076z M3004.115,2457.616c-2.105-0.706-3.301-3.188-2.671-5.545
						c1.137-4.258,2.262-8.513,3.372-12.77c0.613-2.357,2.819-3.718,4.934-3.029c2.11,0.687,3.321,3.16,2.706,5.523
						c-1.113,4.278-2.242,8.555-3.388,12.832c-0.334,1.246-1.11,2.208-2.081,2.733
						C3006.123,2457.829,3005.106,2457.949,3004.115,2457.616z M3015.133,2414.841c-2.122-0.645-3.375-3.091-2.803-5.467
						c1.038-4.286,2.058-8.572,3.06-12.854c0.557-2.382,2.733-3.812,4.856-3.183c2.128,0.622,3.4,3.058,2.844,5.437
						c-1.006,4.31-2.033,8.618-3.074,12.928c-0.313,1.298-1.108,2.306-2.111,2.848
						C3017.072,2415.001,3016.096,2415.131,3015.133,2414.841z M3025.078,2371.742c-2.137-0.573-3.455-2.978-2.943-5.371
						c0.924-4.311,1.826-8.625,2.708-12.937c0.494-2.406,2.628-3.9,4.769-3.347c2.141,0.549,3.48,2.939,2.991,5.337
						c-0.888,4.34-1.796,8.684-2.726,13.025c-0.29,1.353-1.102,2.411-2.139,2.973
						C3026.938,2371.854,3026.007,2371.99,3025.078,2371.742z M3033.833,2328.341c-2.155-0.496-3.542-2.85-3.099-5.26
						c0.798-4.344,1.571-8.684,2.323-13.023c0.417-2.413,2.509-3.998,4.664-3.526c2.157,0.468,3.569,2.804,3.149,5.22
						c-0.757,4.37-1.537,8.744-2.338,13.119c-0.259,1.414-1.091,2.533-2.168,3.116
						C3035.604,2328.399,3034.722,2328.546,3033.833,2328.341z M3041.268,2284.64c-2.167-0.41-3.63-2.706-3.267-5.133
						c0.659-4.385,1.291-8.768,1.902-13.144c0.336-2.435,2.375-4.099,4.545-3.715c2.171,0.377,3.658,2.656,3.318,5.087
						c-0.614,4.412-1.253,8.828-1.914,13.247c-0.223,1.481-1.073,2.666-2.197,3.274
						C3042.941,2284.645,3042.113,2284.798,3041.268,2284.64z M3047.237,2240.591c-2.18-0.31-3.723-2.541-3.448-4.981
						c0.501-4.41,0.976-8.814,1.424-13.212c0.25-2.446,2.219-4.208,4.406-3.922c2.184,0.279,3.752,2.488,3.504,4.932
						c-0.454,4.436-0.932,8.88-1.435,13.326c-0.177,1.553-1.048,2.817-2.22,3.451
						C3048.798,2240.546,3048.03,2240.704,3047.237,2240.591z M3051.565,2196.306c-2.191-0.201-3.821-2.353-3.639-4.805
						c0.326-4.432,0.622-8.852,0.889-13.264c0.148-2.455,2.049-4.318,4.24-4.144c2.193,0.166,3.85,2.292,3.701,4.745
						c-0.27,4.457-0.568,8.922-0.898,13.395c-0.12,1.63-1.01,2.983-2.237,3.647
						C3053.004,2196.213,3052.299,2196.375,3051.565,2196.306z M3054.057,2151.849c-2.196-0.082-3.919-2.14-3.847-4.601
						c0.13-4.44,0.228-8.871,0.295-13.291c0.037-2.461,1.845-4.428,4.047-4.378c2.199,0.043,3.949,2.07,3.911,4.53
						c-0.068,4.468-0.167,8.945-0.298,13.433c-0.051,1.712-0.959,3.167-2.248,3.865
						C3055.357,2151.711,3054.724,2151.873,3054.057,2151.849z M3054.506,2107.302c-2.198,0.055-4.019-1.897-4.067-4.356
						c-0.085-4.429-0.204-8.86-0.355-13.289c-0.083-2.463,1.632-4.527,3.824-4.624c2.198-0.094,4.047,1.822,4.132,4.28
						c0.152,4.482,0.27,8.961,0.359,13.437c0.036,1.8-0.889,3.373-2.248,4.109
						C3055.651,2107.13,3055.095,2107.288,3054.506,2107.302z M3052.73,2062.796c-2.192,0.198-4.11-1.629-4.289-4.082
						c-0.319-4.411-0.675-8.822-1.073-13.224c-0.223-2.449,1.367-4.631,3.56-4.881c2.188-0.247,4.139,1.536,4.36,3.985
						c0.402,4.463,0.764,8.928,1.088,13.4c0.135,1.886-0.797,3.595-2.234,4.373C3053.712,2062.6,3053.235,2062.75,3052.73,2062.796z
						 M3048.456,2018.506c-2.174,0.368-4.202-1.306-4.53-3.738c-0.453-3.352-0.929-6.697-1.434-10.038
						c-0.667-0.508-1.201-1.249-1.495-2.162c-0.747-2.312,0.298-4.895,2.39-5.704c3.698-1.497,7.367-3.069,11.004-4.718
						c2.038-0.925,4.359,0.175,5.184,2.455c0.824,2.282-0.195,4.873-2.194,5.803c-2.324,1.053-4.66,2.076-7.007,3.069
						c0.499,3.314,0.972,6.636,1.421,9.962c0.268,1.98-0.673,3.851-2.199,4.678
						C3049.245,2018.304,3048.861,2018.44,3048.456,2018.506z M3077.659,1985.316c-1.011-2.186-0.249-4.872,1.703-6.004
						c3.488-2.021,6.937-4.121,10.345-6.3c1.914-1.22,4.339-0.478,5.429,1.659c1.091,2.135,0.426,4.858-1.482,6.078
						c-3.503,2.24-7.049,4.396-10.632,6.474c-0.033,0.02-0.066,0.038-0.099,0.056
						C3080.991,1988.326,3078.653,1987.466,3077.659,1985.316z M3111.899,1962.673c-1.277-2.003-0.862-4.784,0.926-6.216
						c3.188-2.548,6.328-5.178,9.417-7.888c1.743-1.523,4.234-1.178,5.588,0.757c1.357,1.938,1.054,4.738-0.676,6.254
						c-3.141,2.758-6.405,5.491-9.702,8.129c-0.188,0.15-0.383,0.278-0.584,0.387
						C3115.156,1965.023,3113.045,1964.464,3111.899,1962.673z M3019.202,2014.689c-3.885,1.166-7.79,2.26-11.716,3.276
						c-2.142,0.555-4.279-0.939-4.774-3.336c-0.497-2.394,0.823-4.783,2.979-5.344c3.835-0.996,7.653-2.063,11.448-3.204
						c2.123-0.637,4.305,0.771,4.875,3.15c0.503,2.098-0.422,4.25-2.108,5.162
						C3019.684,2014.515,3019.448,2014.614,3019.202,2014.689z M3142.815,1934.672c-1.536-1.762-1.505-4.581,0.069-6.299
						l1.899-2.093c2.152-2.398,4.26-4.835,6.322-7.309c1.495-1.791,4.015-1.898,5.626-0.219c1.607,1.679,1.694,4.498,0.196,6.297
						c-2.13,2.555-4.307,5.072-6.532,7.551l-1.953,2.15c-0.316,0.344-0.669,0.62-1.045,0.824
						C3145.898,1936.385,3144.041,1936.078,3142.815,1934.672z M2979.825,2023.876c-3.973,0.674-7.958,1.275-11.957,1.807
						c-2.182,0.29-4.163-1.455-4.421-3.899c-0.258-2.444,1.308-4.666,3.482-4.949c3.916-0.521,7.816-1.11,11.705-1.768
						c2.172-0.369,4.201,1.304,4.53,3.738c0.268,1.979-0.67,3.85-2.199,4.678
						C2980.613,2023.674,2980.231,2023.808,2979.825,2023.876z M3041.295,1974.695c-2.141,0.562-4.283-0.924-4.784-3.318
						c-0.902-4.306-1.85-8.592-2.852-12.859c-0.557-2.378,0.706-4.828,2.838-5.442c2.127-0.624,4.302,0.798,4.861,3.177
						c1.019,4.345,1.986,8.707,2.903,13.088c0.433,2.071-0.498,4.138-2.14,5.027
						C3041.864,1974.507,3041.586,1974.619,3041.295,1974.695z M2939.823,2028.256c-4.015,0.204-8.035,0.344-12.057,0.414
						c-2.197,0.039-4.007-1.924-4.04-4.385c-0.035-2.458,1.723-4.485,3.917-4.523c3.94-0.07,7.879-0.206,11.813-0.408
						c2.197-0.111,4.059,1.79,4.159,4.246c0.075,1.837-0.854,3.466-2.244,4.219
						C2940.901,2028.073,2940.378,2028.226,2939.823,2028.256z M3169.456,1901.66c-1.765-1.466-2.134-4.258-0.822-6.232
						c2.32-3.499,4.601-7.103,6.777-10.72c1.226-2.038,3.702-2.584,5.524-1.207c1.823,1.374,2.306,4.143,1.078,6.183
						c-2.244,3.73-4.596,7.452-6.99,11.057c-0.397,0.597-0.9,1.051-1.458,1.353
						C3172.273,1902.794,3170.687,1902.686,3169.456,1901.66z M2899.64,2028.076c-4.017-0.239-8.03-0.543-12.033-0.915
						c-2.192-0.206-3.821-2.356-3.637-4.81c0.181-2.453,2.103-4.28,4.294-4.072c3.927,0.365,7.859,0.665,11.797,0.899
						c2.195,0.131,3.882,2.229,3.764,4.684c-0.079,1.681-0.982,3.093-2.246,3.777
						C2900.996,2027.957,2900.333,2028.117,2899.64,2028.076z M3191.138,1864.401c-1.941-1.151-2.683-3.847-1.654-6.023
						c1.833-3.877,3.589-7.8,5.269-11.767c0.938-2.221,3.314-3.174,5.3-2.117c1.988,1.052,2.833,3.709,1.892,5.932
						c-1.727,4.081-3.553,8.16-5.426,12.123c-0.412,0.87-1.044,1.524-1.781,1.923
						C3193.635,1865.069,3192.305,1865.091,3191.138,1864.401z M3030.832,1931.725c-2.084,0.781-4.338-0.478-5.036-2.811
						c-1.251-4.185-2.554-8.346-3.916-12.485c-0.759-2.305,0.256-4.853,2.36-5.719c2.063-0.851,4.351,0.332,5.109,2.642
						c1.388,4.222,2.721,8.469,3.995,12.737c0.643,2.148-0.262,4.46-2.036,5.42
						C3031.156,1931.591,3030.998,1931.665,3030.832,1931.725z M2859.672,2023.502c-3.979-0.676-7.947-1.415-11.898-2.217
						c-2.162-0.441-3.597-2.759-3.205-5.18c0.391-2.418,2.465-4.026,4.628-3.588c3.876,0.787,7.765,1.513,11.669,2.176
						c2.173,0.367,3.669,2.639,3.339,5.072c-0.205,1.511-1.063,2.726-2.206,3.345
						C2861.3,2023.489,2860.496,2023.643,2859.672,2023.502z M3207.667,1823.919c-2.07-0.829-3.146-3.38-2.405-5.695
						c1.323-4.138,2.573-8.309,3.747-12.512c0.659-2.347,2.892-3.653,4.986-2.919c2.099,0.735,3.267,3.234,2.611,5.583
						c-1.207,4.316-2.49,8.602-3.85,12.852c-0.366,1.146-1.107,2.018-2.014,2.509
						C3209.814,1824.238,3208.714,1824.339,3207.667,1823.919z M2820.279,2014.595c-3.897-1.114-7.781-2.297-11.648-3.555
						c-2.11-0.687-3.325-3.158-2.712-5.522c0.616-2.366,2.823-3.723,4.933-3.036c3.783,1.23,7.584,2.391,11.395,3.479
						c2.131,0.608,3.416,3.034,2.873,5.419c-0.303,1.323-1.105,2.358-2.126,2.909
						C2822.179,2014.731,2821.225,2014.866,2820.279,2014.595z M3219.048,1781.24c-2.148-0.516-3.518-2.885-3.054-5.291
						c0.825-4.301,1.578-8.624,2.26-12.967c0.377-2.425,2.439-4.049,4.608-3.619c2.165,0.425,3.612,2.734,3.233,5.158
						c-0.698,4.455-1.472,8.89-2.319,13.299c-0.268,1.397-1.094,2.499-2.159,3.076
						C3220.844,1781.314,3219.95,1781.458,3219.048,1781.24z M3016.683,1890.107c-2.001,1.021-4.361,0.034-5.271-2.206
						c-1.108-2.719-2.243-5.426-3.41-8.125c-0.549-1.276-1.106-2.545-1.667-3.809c-0.978-2.204-0.176-4.877,1.792-5.973
						c0.014-0.008,0.026-0.014,0.041-0.021c1.96-1.061,4.324-0.159,5.296,2.029c0.577,1.299,1.147,2.6,1.708,3.901
						c1.19,2.755,2.351,5.522,3.482,8.305c0.899,2.208,0.054,4.806-1.886,5.856
						C3016.74,1890.079,3016.711,1890.094,3016.683,1890.107z M2781.908,2000.93c-3.767-1.643-7.5-3.368-11.191-5.182
						c-2.013-0.991-2.928-3.618-2.045-5.872c0.888-2.257,3.236-3.276,5.245-2.289c3.588,1.764,7.217,3.443,10.879,5.037
						c2.048,0.892,3.062,3.474,2.266,5.769c-0.381,1.093-1.102,1.92-1.977,2.394
						C2784.125,2001.308,2782.982,2001.398,2781.908,2000.93z M3225.456,1737.269c-2.188-0.217-3.805-2.381-3.61-4.833
						c0.348-4.386,0.626-8.782,0.833-13.189c0.115-2.452,1.989-4.334,4.185-4.213c2.196,0.131,3.881,2.227,3.764,4.685
						c-0.213,4.512-0.496,9.017-0.854,13.51c-0.128,1.618-1.015,2.957-2.234,3.616
						C3226.913,1737.184,3226.199,1737.342,3225.456,1737.269z M2993.068,1848.99c-2.045-3.752-4.155-7.464-6.332-11.131
						c-1.216-2.05-0.719-4.816,1.112-6.176c1.849-1.37,4.303-0.807,5.517,1.244c2.236,3.765,4.401,7.573,6.499,11.428
						c1.145,2.101,0.55,4.841-1.327,6.122c-0.111,0.078-0.227,0.146-0.342,0.209
						C2996.373,1851.672,2994.142,1850.966,2993.068,1848.99z M2745.472,1981.435c-3.533-2.301-7.01-4.71-10.339-7.161
						c-1.836-1.352-2.345-4.114-1.137-6.169c1.205-2.057,3.677-2.627,5.511-1.273c3.206,2.359,6.562,4.682,9.968,6.902
						c1.9,1.239,2.545,3.966,1.438,6.092c-0.413,0.797-1.014,1.395-1.704,1.768
						C2748.06,1982.216,2746.662,1982.21,2745.472,1981.435z M3227.106,1692.753c-2.198,0.069-4.029-1.87-4.089-4.33
						c-0.109-4.407-0.286-8.813-0.53-13.214c-0.138-2.453,1.526-4.567,3.727-4.722c2.193-0.154,4.082,1.714,4.217,4.171
						c0.25,4.505,0.431,9.01,0.543,13.516c0.044,1.81-0.881,3.398-2.247,4.138
						C3228.236,1692.579,3227.686,1692.735,3227.106,1692.753z M2712.551,1955c-3.055-3.028-6.038-6.184-8.861-9.382
						c-1.546-1.748-1.532-4.569,0.032-6.3c1.561-1.739,4.082-1.714,5.628,0.036c2.701,3.056,5.553,6.075,8.478,8.972
						c1.646,1.631,1.798,4.449,0.343,6.29c-0.362,0.457-0.786,0.81-1.246,1.058C2715.523,1956.433,2713.79,1956.225,2712.551,1955z
						 M2970.502,1813.032c-2.465-3.426-4.991-6.797-7.572-10.109c-1.445-1.855-1.273-4.668,0.384-6.285
						c1.658-1.632,4.169-1.429,5.614,0.428c2.653,3.399,5.242,6.861,7.772,10.378c1.379,1.916,1.109,4.721-0.603,6.264
						c-0.243,0.218-0.5,0.398-0.768,0.543C2973.702,1815.132,2971.685,1814.677,2970.502,1813.032z M3224.202,1648.321
						c-2.177,0.343-4.19-1.353-4.496-3.79c-0.55-4.364-1.167-8.719-1.846-13.063c-0.377-2.426,1.069-4.726,3.236-5.157
						c2.166-0.423,4.227,1.199,4.607,3.622c0.694,4.438,1.322,8.892,1.885,13.355c0.247,1.966-0.691,3.813-2.208,4.634
						C3225.019,1648.118,3224.622,1648.255,3224.202,1648.321z M2685.468,1921.024c-2.286-3.762-4.466-7.682-6.477-11.652
						c-1.084-2.141-0.413-4.859,1.499-6.074c1.925-1.208,4.343-0.461,5.427,1.677c1.903,3.761,3.968,7.474,6.133,11.036
						c1.236,2.035,0.765,4.808-1.051,6.19c-0.166,0.126-0.337,0.235-0.511,0.33
						C2688.74,1923.476,2686.591,1922.874,2685.468,1921.024z M2943.911,1780.74c-2.854-3.022-5.76-5.974-8.718-8.855
						c-1.659-1.615-1.835-4.43-0.392-6.286c1.448-1.857,3.959-2.056,5.616-0.438c3.042,2.962,6.031,6,8.964,9.104
						c1.597,1.692,1.667,4.512,0.157,6.3c-0.343,0.406-0.735,0.722-1.158,0.951
						C2946.935,1782.297,2945.148,1782.047,2943.911,1780.74z M3216.9,1604.532c-2.128,0.611-4.296-0.825-4.844-3.208
						c-0.979-4.269-2.02-8.519-3.125-12.744c-0.616-2.359,0.594-4.822,2.702-5.528c2.111-0.691,4.322,0.664,4.938,3.025
						c1.129,4.323,2.195,8.666,3.195,13.035c0.479,2.087-0.447,4.211-2.118,5.115
						C3217.414,1604.354,3217.163,1604.458,3216.9,1604.532z M2913.601,1752.941c-3.222-2.533-6.511-4.993-9.771-7.311
						c-1.855-1.321-2.402-4.075-1.225-6.152c1.184-2.071,3.637-2.687,5.495-1.37c3.363,2.394,6.753,4.932,10.076,7.544
						c1.8,1.413,2.234,4.191,0.969,6.205c-0.402,0.643-0.93,1.13-1.52,1.449C2916.367,1753.985,2914.825,1753.904,2913.601,1752.941
						z M2672.321,1882.986c-2.078,0.796-4.341-0.446-5.054-2.774c-1.324-4.328-2.501-8.756-3.497-13.159
						c-0.541-2.385,0.756-4.825,2.879-5.413c2.131-0.605,4.298,0.837,4.836,3.223c0.944,4.169,2.058,8.362,3.313,12.465
						c0.659,2.154-0.241,4.483-2.027,5.45C2672.626,1882.856,2672.477,1882.926,2672.321,1882.986z M3205.293,1561.939
						c-2.054,0.875-4.354-0.279-5.134-2.58c-1.399-4.117-2.863-8.203-4.386-12.257c-0.851-2.27,0.131-4.916,2.125-5.833
						c2.027-0.955,4.36,0.111,5.212,2.378c1.561,4.15,3.056,8.331,4.489,12.545c0.739,2.175-0.145,4.597-1.984,5.592
						C3205.512,1561.84,3205.405,1561.893,3205.293,1561.939z M2879.923,1730.66c-3.493-1.904-7.085-3.734-10.677-5.438
						c-2.023-0.959-2.967-3.575-2.112-5.841c0.861-2.269,3.197-3.328,5.22-2.362c3.718,1.764,7.437,3.657,11.055,5.63
						c1.976,1.076,2.798,3.744,1.835,5.956c-0.406,0.935-1.067,1.639-1.844,2.059
						C2882.341,1731.239,2881.064,1731.282,2879.923,1730.66z M2663.679,1839.618c-2.196,0.114-4.058-1.788-4.159-4.246
						c-0.19-4.621-0.188-9.262,0.011-13.789c0.108-2.458,1.972-4.354,4.168-4.233c2.195,0.119,3.889,2.207,3.781,4.666
						c-0.184,4.249-0.187,8.605-0.008,12.947c0.075,1.837-0.853,3.466-2.244,4.219
						C2664.757,1839.435,2664.234,1839.588,2663.679,1839.618z M2843.463,1715.045c-3.747-1.188-7.568-2.27-11.358-3.22
						c-2.146-0.536-3.495-2.918-3.017-5.318c0.483-2.405,2.61-3.916,4.751-3.377c3.938,0.985,7.904,2.11,11.793,3.342
						c2.115,0.672,3.342,3.134,2.743,5.5c-0.323,1.277-1.11,2.264-2.098,2.798
						C2845.431,1715.228,2844.438,1715.353,2843.463,1715.045z M3184.07,1519.221c-1.819-3.904-3.701-7.771-5.642-11.594
						c-1.088-2.137-0.42-4.857,1.492-6.073c1.873-1.241,4.339-0.469,5.425,1.671c1.991,3.917,3.918,7.875,5.782,11.876
						c1.016,2.183,0.26,4.874-1.688,6.011c-0.036,0.021-0.073,0.042-0.109,0.061
						C3187.402,1522.216,3185.067,1521.36,3184.07,1519.221z M2667.006,1795.4c-2.104-0.712-3.293-3.2-2.655-5.556
						c1.201-4.439,2.634-8.817,4.259-13.015c0.875-2.255,3.217-3.291,5.234-2.315c2.019,0.978,2.944,3.601,2.07,5.861
						c-1.504,3.883-2.832,7.939-3.945,12.053c-0.335,1.24-1.11,2.196-2.077,2.72
						C2669.024,1795.618,2668.003,1795.738,2667.006,1795.4z M2805.153,1707.371c-3.865-0.297-7.789-0.452-11.665-0.458
						c-2.197-0.005-3.975-2.002-3.972-4.463c0.003-2.461,1.794-4.451,3.987-4.447c4.05,0.006,8.153,0.167,12.197,0.479
						c2.193,0.169,3.848,2.296,3.697,4.75c-0.101,1.655-0.997,3.034-2.24,3.707
						C2806.553,1707.265,2805.869,1707.425,2805.153,1707.371z M2684.218,1755.526c-1.699-1.559-1.945-4.367-0.55-6.27
						c2.602-3.55,5.432-6.979,8.405-10.194c1.58-1.714,4.105-1.657,5.629,0.111c1.527,1.771,1.481,4.591-0.099,6.3
						c-2.756,2.976-5.375,6.15-7.784,9.436c-0.377,0.516-0.837,0.91-1.341,1.182
						C2687.125,1756.824,2685.457,1756.665,2684.218,1755.526z M2766.381,1709.292c-3.848,0.696-7.69,1.553-11.417,2.549
						c-2.138,0.573-4.286-0.906-4.795-3.298c-0.511-2.396,0.809-4.812,2.946-5.367c3.919-1.049,7.955-1.949,11.996-2.679
						c2.171-0.393,4.214,1.259,4.564,3.686c0.288,1.992-0.65,3.887-2.193,4.723
						C2767.142,1709.09,2766.771,1709.223,2766.381,1709.292z M2713.647,1725.871c-1.095-2.135-0.438-4.856,1.466-6.083
						c3.479-2.235,7.173-4.349,10.944-6.29c1.999-1.023,4.36-0.039,5.275,2.198c0.914,2.239-0.01,4.916-1.965,5.905
						c-3.55,1.825-7.022,3.811-10.286,5.911c-0.084,0.053-0.168,0.104-0.254,0.15
						C2716.964,1728.672,2714.694,1727.91,2713.647,1725.871z M3163.927,1481.389c-2.192-3.668-4.428-7.295-6.711-10.879
						c-1.277-2.006-0.859-4.786,0.932-6.216c1.796-1.434,4.274-0.959,5.55,1.044c2.329,3.661,4.613,7.359,6.845,11.101
						c1.222,2.045,0.73,4.812-1.097,6.179c-0.156,0.118-0.317,0.22-0.483,0.31
						C3167.205,1483.879,3165.042,1483.259,3163.927,1481.389z M3140.453,1445.998c-2.5-3.412-5.043-6.781-7.629-10.112
						c-1.441-1.857-1.265-4.67,0.394-6.286c1.662-1.6,4.172-1.412,5.616,0.442c2.633,3.392,5.223,6.828,7.772,10.304
						c1.395,1.903,1.148,4.71-0.552,6.271c-0.249,0.229-0.518,0.417-0.795,0.568
						C3143.643,1448.06,3141.642,1447.621,3140.453,1445.998z M3114.061,1413.237c-2.771-3.142-5.583-6.24-8.43-9.299
						c-1.587-1.705-1.637-4.524-0.117-6.3c1.528-1.769,4.043-1.834,5.628-0.13c2.897,3.115,5.76,6.273,8.581,9.468
						c1.544,1.75,1.531,4.571-0.034,6.3c-0.32,0.355-0.679,0.636-1.063,0.844C3117.135,1414.926,3115.289,1414.63,3114.061,1413.237
						z M3085.135,1383.207c-3.006-2.864-6.046-5.689-9.115-8.474c-1.709-1.547-1.972-4.353-0.587-6.264
						c1.379-1.916,3.891-2.208,5.597-0.657c3.12,2.829,6.209,5.7,9.265,8.61c1.674,1.595,1.876,4.406,0.451,6.28
						c-0.371,0.486-0.813,0.863-1.295,1.125C3088.073,1384.571,3086.374,1384.387,3085.135,1383.207z M3054.063,1355.939
						c-3.199-2.588-6.428-5.137-9.688-7.644c-1.81-1.395-2.269-4.17-1.025-6.197c1.247-2.031,3.725-2.546,5.537-1.146
						c3.308,2.549,6.589,5.136,9.84,7.765c1.78,1.441,2.181,4.224,0.894,6.219c-0.4,0.62-0.915,1.09-1.489,1.401
						C3056.856,1357.026,3055.294,1356.932,3054.063,1355.939z M3021.19,1331.41c-3.363-2.318-6.753-4.598-10.167-6.838
						c-1.895-1.243-2.531-3.973-1.419-6.097c1.106-2.117,3.549-2.835,5.447-1.589c3.462,2.273,6.9,4.584,10.312,6.935
						c1.873,1.291,2.456,4.035,1.304,6.13c-0.414,0.751-0.994,1.316-1.654,1.673
						C3023.83,1332.264,3022.391,1332.236,3021.19,1331.41z M2986.817,1309.554c-3.502-2.055-7.024-4.071-10.563-6.05
						c-1.966-1.098-2.766-3.773-1.783-5.975c0.974-2.197,3.371-3.096,5.338-1.996c3.586,2.002,7.155,4.044,10.704,6.128
						c1.947,1.142,2.698,3.836,1.677,6.015c-0.413,0.879-1.049,1.54-1.789,1.94
						C2989.304,1310.21,2987.979,1310.235,2986.817,1309.554z M2951.209,1290.297c-3.612-1.8-7.243-3.557-10.889-5.279
						c-2.023-0.958-2.972-3.572-2.119-5.839c0.857-2.264,3.191-3.325,5.216-2.372c3.69,1.745,7.366,3.527,11.025,5.345
						c2.008,1.001,2.913,3.633,2.022,5.882c-0.399,1.001-1.087,1.758-1.904,2.2
						C2953.542,1290.785,2952.322,1290.849,2951.209,1290.297z"/>
				</g>
			</g>
		</g>
	</g>
</g>
</svg>
